<svg id="Layer_1" data-name="Layer 1" xmlns="http://www.w3.org/2000/svg" viewBox="0 0 361.07 66.55"><defs><style>.cls-1,.cls-3{font-size:58.54px;font-family:RobotoSlab-Medium, Roboto Slab;font-weight:500;}.cls-1,.cls-3,.cls-8{fill:#507abd;}.cls-2{letter-spacing:0em;}.cls-3{letter-spacing:0em;}.cls-4{letter-spacing:0em;}.cls-5{letter-spacing:0em;}.cls-6{letter-spacing:0em;}.cls-7{letter-spacing:-0.04em;}.cls-9{fill:#507bbd;}.cls-10{fill:#507bbc;}.cls-11{fill:#507cbc;}.cls-12{fill:#4f7cbb;}.cls-13{fill:#4f7dbb;}.cls-14{fill:#4f7ebb;}.cls-15{fill:#4e7fbb;}.cls-16{fill:#4e80ba;}.cls-17{fill:#4e81ba;}.cls-18{fill:#4d81ba;}.cls-19{fill:#4d82ba;}.cls-20{fill:#4d83ba;}.cls-21{fill:#4c83ba;}.cls-22{fill:#4c84ba;}.cls-23{fill:#4b85ba;}.cls-24{fill:#4b86b9;}.cls-25{fill:#4a87b9;}.cls-26{fill:#4a88b9;}.cls-27{fill:#4988b9;}.cls-28{fill:#4989b9;}.cls-29{fill:#488ab9;}.cls-30{fill:#488bb8;}.cls-31{fill:#478bb8;}.cls-32{fill:#478cb8;}.cls-33{fill:#478db8;}.cls-34{fill:#468db8;}.cls-35{fill:#468eb8;}.cls-36{fill:#458fb8;}.cls-37{fill:#4590b7;}.cls-38{fill:#4490b7;}.cls-39{fill:#4491b7;}.cls-40{fill:#4392b7;}.cls-41{fill:#4393b7;}.cls-42{fill:#4293b7;}.cls-43{fill:#4294b6;}.cls-44{fill:#4195b6;}.cls-45{fill:#4096b6;}.cls-46{fill:#4097b6;}.cls-47{fill:#3f97b5;}.cls-48{fill:#3f98b5;}.cls-49{fill:#3e98b5;}.cls-50{fill:#3e99b5;}.cls-51{fill:#3d9ab5;}.cls-52{fill:#3c9bb4;}.cls-53{fill:#3c9cb4;}.cls-54{fill:#3b9cb4;}.cls-55{fill:#3b9db4;}.cls-56{fill:#3a9db3;}.cls-57{fill:#3a9eb3;}.cls-58{fill:#399fb3;}.cls-59{fill:#38a0b2;}.cls-60{fill:#37a1b2;}.cls-61{fill:#37a2b2;}.cls-62{fill:#36a2b1;}.cls-63{fill:#35a3b1;}.cls-64{fill:#34a4b1;}.cls-65{fill:#34a4b0;}.cls-66{fill:#33a5b0;}.cls-67{fill:#32a6b0;}.cls-68{fill:#32a6af;}.cls-69{fill:#31a7af;}.cls-70{fill:#30a8af;}.cls-71{fill:#30a8ae;}.cls-72{fill:#2fa8ae;}.cls-73{fill:#2ea9ae;}.cls-74{fill:#2daaad;}.cls-75{fill:#2cabad;}.cls-76{fill:#2cabac;}.cls-77{fill:#2bacac;}.cls-78{fill:#2aacac;}.cls-79{fill:#2aadac;}.cls-80{fill:#29adab;}.cls-81{fill:#28aeab;}.cls-82{fill:#27aeaa;}.cls-83{fill:#26afaa;}.cls-84{fill:#25b0aa;}.cls-85{fill:#24b0a9;}.cls-86{fill:#24b1a9;}.cls-87{fill:#23b1a9;}.cls-88{fill:#22b2a8;}.cls-89{fill:#21b2a8;}.cls-90{fill:#20b3a7;}.cls-91{fill:#1fb3a7;}.cls-92{fill:#1eb4a7;}.cls-93{fill:#1db4a7;}.cls-94{fill:#1cb5a6;}.cls-95{fill:#1ab5a6;}.cls-96{fill:#19b6a6;}.cls-97{fill:#17b7a6;}.cls-98{fill:#14b7a5;}</style></defs><text class="cls-1" transform="translate(0 50.08)"><tspan class="cls-2">f</tspan><tspan x="21.84" y="0">ef</tspan></text><text class="cls-3" transform="translate(143.16 50.68)">c<tspan class="cls-4" x="31.02" y="0">a</tspan><tspan class="cls-5" x="63.72" y="0">d</tspan><tspan class="cls-6" x="98.36" y="0">e</tspan><tspan class="cls-7" x="128.95" y="0">m</tspan><tspan class="cls-6" x="182.29" y="0">y</tspan></text><circle class="cls-8" cx="133.17" cy="25.62" r="3.84"/><circle class="cls-9" cx="134.08" cy="26.63" r="3.84"/><circle class="cls-10" cx="134.84" cy="27.7" r="3.84"/><circle class="cls-11" cx="135.48" cy="28.84" r="3.84"/><circle class="cls-12" cx="135.99" cy="30.03" r="3.84"/><circle class="cls-13" cx="136.36" cy="31.25" r="3.84"/><circle class="cls-13" cx="136.6" cy="32.5" r="3.84"/><circle class="cls-14" cx="136.71" cy="33.76" r="3.84"/><circle class="cls-14" cx="136.68" cy="35.03" r="3.84"/><circle class="cls-15" cx="136.52" cy="36.29" r="3.84"/><circle class="cls-15" cx="136.23" cy="37.53" r="3.84"/><circle class="cls-16" cx="135.81" cy="38.74" r="3.84"/><circle class="cls-16" cx="135.26" cy="39.91" r="3.84"/><circle class="cls-17" cx="134.57" cy="41.03" r="3.84"/><circle class="cls-18" cx="133.75" cy="42.08" r="3.84"/><circle class="cls-19" cx="132.81" cy="43.05" r="3.84"/><circle class="cls-19" cx="131.77" cy="43.91" r="3.84"/><circle class="cls-20" cx="130.67" cy="44.63" r="3.84"/><circle class="cls-21" cx="129.51" cy="45.21" r="3.84"/><circle class="cls-22" cx="128.31" cy="45.67" r="3.84"/><circle class="cls-22" cx="127.08" cy="45.99" r="3.84"/><circle class="cls-23" cx="125.82" cy="46.18" r="3.84"/><circle class="cls-23" cx="124.56" cy="46.24" r="3.84"/><circle class="cls-24" cx="123.29" cy="46.17" r="3.84"/><circle class="cls-24" cx="122.04" cy="45.96" r="3.84"/><circle class="cls-25" cx="120.81" cy="45.62" r="3.84"/><circle class="cls-25" cx="119.61" cy="45.15" r="3.84"/><circle class="cls-26" cx="118.46" cy="44.55" r="3.84"/><circle class="cls-27" cx="117.37" cy="43.81" r="3.84"/><circle class="cls-28" cx="116.34" cy="42.94" r="3.84"/><circle class="cls-28" cx="115.41" cy="42.02" r="3.84"/><circle class="cls-29" cx="114.49" cy="41.1" r="3.84"/><circle class="cls-29" cx="113.57" cy="40.18" r="3.84"/><circle class="cls-30" cx="112.65" cy="39.27" r="3.84"/><circle class="cls-31" cx="111.74" cy="38.35" r="3.84"/><circle class="cls-32" cx="110.82" cy="37.43" r="3.84"/><circle class="cls-32" cx="109.9" cy="36.51" r="3.84"/><circle class="cls-33" cx="108.98" cy="35.6" r="3.84"/><circle class="cls-34" cx="108.07" cy="34.68" r="3.84"/><circle class="cls-35" cx="107.15" cy="33.76" r="3.84"/><circle class="cls-35" cx="106.23" cy="32.84" r="3.84"/><circle class="cls-36" cx="105.32" cy="31.93" r="3.84"/><circle class="cls-36" cx="104.4" cy="31.01" r="3.84"/><circle class="cls-37" cx="103.48" cy="30.09" r="3.84"/><circle class="cls-38" cx="102.56" cy="29.17" r="3.84"/><circle class="cls-39" cx="101.65" cy="28.26" r="3.84"/><circle class="cls-39" cx="100.73" cy="27.34" r="3.84"/><circle class="cls-40" cx="99.81" cy="26.42" r="3.84"/><circle class="cls-40" cx="98.89" cy="25.5" r="3.84"/><circle class="cls-41" cx="97.87" cy="24.61" r="3.84"/><circle class="cls-42" cx="96.78" cy="23.86" r="3.84"/><circle class="cls-43" cx="95.64" cy="23.24" r="3.84"/><circle class="cls-43" cx="94.45" cy="22.75" r="3.84"/><circle class="cls-44" cx="93.22" cy="22.4" r="3.84"/><circle class="cls-44" cx="91.97" cy="22.18" r="3.84"/><circle class="cls-45" cx="90.7" cy="22.08" r="3.84"/><circle class="cls-45" cx="89.44" cy="22.13" r="3.84"/><circle class="cls-46" cx="88.18" cy="22.3" r="3.84"/><circle class="cls-47" cx="86.94" cy="22.61" r="3.84"/><circle class="cls-48" cx="85.74" cy="23.04" r="3.84"/><circle class="cls-49" cx="84.57" cy="23.61" r="3.84"/><circle class="cls-50" cx="83.46" cy="24.32" r="3.84"/><circle class="cls-50" cx="82.42" cy="25.15" r="3.84"/><circle class="cls-51" cx="81.46" cy="26.11" r="3.84"/><circle class="cls-51" cx="80.62" cy="27.16" r="3.84"/><circle class="cls-52" cx="79.92" cy="28.27" r="3.84"/><circle class="cls-52" cx="79.35" cy="29.43" r="3.84"/><circle class="cls-53" cx="78.91" cy="30.64" r="3.84"/><circle class="cls-54" cx="78.61" cy="31.87" r="3.84"/><circle class="cls-55" cx="78.43" cy="33.13" r="3.84"/><circle class="cls-56" cx="78.39" cy="34.4" r="3.84"/><circle class="cls-57" cx="78.48" cy="35.66" r="3.84"/><circle class="cls-57" cx="78.71" cy="36.91" r="3.84"/><circle class="cls-58" cx="79.06" cy="38.14" r="3.84"/><circle class="cls-58" cx="79.55" cy="39.33" r="3.84"/><circle class="cls-59" cx="80.17" cy="40.48" r="3.84"/><circle class="cls-59" cx="80.92" cy="41.56" r="3.84"/><circle class="cls-60" cx="81.81" cy="42.58" r="3.84"/><circle class="cls-60" cx="82.8" cy="43.5" r="3.84"/><circle class="cls-61" cx="83.87" cy="44.28" r="3.84"/><circle class="cls-62" cx="85" cy="44.94" r="3.84"/><circle class="cls-62" cx="86.18" cy="45.46" r="3.84"/><circle class="cls-63" cx="87.4" cy="45.85" r="3.84"/><circle class="cls-63" cx="88.65" cy="46.1" r="3.84"/><circle class="cls-64" cx="89.91" cy="46.23" r="3.84"/><circle class="cls-65" cx="91.18" cy="46.22" r="3.84"/><circle class="cls-66" cx="92.44" cy="46.08" r="3.84"/><circle class="cls-66" cx="93.68" cy="45.81" r="3.84"/><circle class="cls-67" cx="94.9" cy="45.4" r="3.84"/><circle class="cls-68" cx="96.07" cy="44.86" r="3.84"/><circle class="cls-69" cx="97.2" cy="44.2" r="3.84"/><circle class="cls-69" cx="98.26" cy="43.39" r="3.84"/><circle class="cls-70" cx="99.24" cy="42.48" r="3.84"/><circle class="cls-71" cx="100.15" cy="41.56" r="3.84"/><circle class="cls-72" cx="101.07" cy="40.64" r="3.84"/><circle class="cls-73" cx="101.99" cy="39.72" r="3.84"/><circle class="cls-73" cx="102.91" cy="38.81" r="3.84"/><circle class="cls-74" cx="103.82" cy="37.89" r="3.84"/><circle class="cls-74" cx="104.74" cy="36.97" r="3.84"/><circle class="cls-75" cx="105.66" cy="36.05" r="3.84"/><circle class="cls-76" cx="106.58" cy="35.14" r="3.84"/><circle class="cls-77" cx="107.49" cy="34.22" r="3.84"/><circle class="cls-78" cx="108.41" cy="33.3" r="3.84"/><circle class="cls-79" cx="109.33" cy="32.38" r="3.84"/><circle class="cls-80" cx="110.24" cy="31.47" r="3.84"/><circle class="cls-81" cx="111.16" cy="30.55" r="3.84"/><circle class="cls-81" cx="112.08" cy="29.63" r="3.84"/><circle class="cls-82" cx="113" cy="28.71" r="3.84"/><circle class="cls-83" cx="113.91" cy="27.8" r="3.84"/><circle class="cls-83" cx="114.83" cy="26.88" r="3.84"/><circle class="cls-84" cx="115.75" cy="25.96" r="3.84"/><circle class="cls-85" cx="116.71" cy="25.04" r="3.84"/><circle class="cls-86" cx="117.77" cy="24.22" r="3.84"/><circle class="cls-87" cx="118.88" cy="23.54" r="3.84"/><circle class="cls-88" cx="120.05" cy="22.98" r="3.84"/><circle class="cls-89" cx="121.26" cy="22.56" r="3.84"/><circle class="cls-89" cx="122.5" cy="22.27" r="3.84"/><circle class="cls-90" cx="123.76" cy="22.11" r="3.84"/><circle class="cls-91" cx="125.03" cy="22.09" r="3.84"/><circle class="cls-92" cx="126.29" cy="22.2" r="3.84"/><circle class="cls-93" cx="127.54" cy="22.44" r="3.84"/><circle class="cls-94" cx="128.77" cy="22.81" r="3.84"/><circle class="cls-95" cx="129.95" cy="23.31" r="3.84"/><circle class="cls-96" cx="131.09" cy="23.95" r="3.84"/><circle class="cls-97" cx="132.17" cy="24.72" r="3.84"/><circle class="cls-98" cx="133.17" cy="25.62" r="3.84"/></svg>