<?xml version="1.0" encoding="UTF-8"?><svg id="Layer_1" xmlns="http://www.w3.org/2000/svg" viewBox="0 0 358.78 58.29"><defs><style>.cls-1{fill:#27aeaa;}.cls-2{fill:#34a4b1;}.cls-3{fill:#38a0b2;}.cls-4{fill:#30a8af;}.cls-5{fill:#33a5b0;}.cls-6{fill:#478db8;}.cls-7{fill:#2cabad;}.cls-8{fill:#3c9bb4;}.cls-9{fill:#4e7fbb;}.cls-10{fill:#4f7ebb;}.cls-11{fill:#4590b7;}.cls-12{fill:#36a2b1;}.cls-13{fill:#3a9db3;}.cls-14{fill:#3f98b5;}.cls-15{fill:#4490b7;}.cls-16{fill:#4b86b9;}.cls-17{fill:#24b1a9;}.cls-18{fill:#468db8;}.cls-19{fill:#3c9cb4;}.cls-20{fill:#4e80ba;}.cls-21{fill:#1ab5a6;}.cls-22{fill:#1cb5a6;}.cls-23{fill:#4f7dbb;}.cls-24{fill:#4097b6;}.cls-25{fill:#4e81ba;}.cls-26{fill:#21b2a8;}.cls-27{fill:#488ab9;}.cls-28{fill:#14b7a5;}.cls-29{fill:#478cb8;}.cls-30{fill:#2daaad;}.cls-31{fill:#458fb8;}.cls-32{fill:#4d82ba;}.cls-33{fill:#31a7af;}.cls-34{fill:#507abd;}.cls-35{fill:#468eb8;}.cls-36{fill:#2aadac;}.cls-37{fill:#399fb3;}.cls-38{fill:#507bbd;}.cls-39{fill:#3b9db4;}.cls-40{fill:#4293b7;}.cls-41{fill:#37a2b2;}.cls-42{fill:#4392b7;}.cls-43{fill:#4393b7;}.cls-44{fill:#29adab;}.cls-45{fill:#26afaa;}.cls-46{fill:#3e99b5;}.cls-47{fill:#4a87b9;}.cls-48{fill:#488bb8;}.cls-49{fill:#20b3a7;}.cls-50{fill:#24b0a9;}.cls-51{fill:#37a1b2;}.cls-52{fill:#4989b9;}.cls-53{fill:#3d9ab5;}.cls-54{fill:#1db4a7;}.cls-55{fill:#32a6af;}.cls-56{fill:#19b6a6;}.cls-57{fill:#507bbc;}.cls-58{fill:#4c83ba;}.cls-59{fill:#4294b6;}.cls-60{fill:#507cbc;}.cls-61{fill:#4c84ba;}.cls-62{fill:#23b1a9;}.cls-63{fill:#3a9eb3;}.cls-64{fill:#478bb8;}.cls-65{fill:#25b0aa;}.cls-66{fill:#4a88b9;}.cls-67{fill:#32a6b0;}.cls-68{fill:#1eb4a7;}.cls-69{fill:#4d81ba;}.cls-70{fill:#4d83ba;}.cls-71{fill:#4491b7;}.cls-72{fill:#22b2a8;}.cls-73{fill:#4096b6;}.cls-74{fill:#2aacac;}.cls-75{fill:#3b9cb4;}.cls-76{fill:#4b85ba;}.cls-77{fill:#3f97b5;}.cls-78{fill:#1fb3a7;}.cls-79{fill:#35a3b1;}.cls-80{fill:#30a8ae;}.cls-81{fill:#28aeab;}.cls-82{fill:#2cabac;}.cls-83{fill:#4f7cbb;}.cls-84{fill:#2ea9ae;}.cls-85{fill:#4195b6;}.cls-86{fill:#3e98b5;}.cls-87{fill:#2fa8ae;}.cls-88{fill:#34a4b0;}.cls-89{fill:#4988b9;}.cls-90{fill:#17b7a6;}.cls-91{fill:#2bacac;}</style></defs><g><path class="cls-34" d="M.4,45.19v-4.4l4.32-.86V19.41H0v-5.15H4.72v-3.63c0-3.39,.94-6.01,2.82-7.86S12.03,0,15.41,0c.78,0,1.62,.06,2.52,.19s1.71,.28,2.46,.47l-.71,5.4c-.4-.09-.9-.18-1.49-.24-.59-.07-1.17-.1-1.74-.1-1.53,0-2.66,.42-3.42,1.26s-1.13,2.06-1.13,3.66v3.63h6.92v5.15h-6.92v20.52l5.4,.86v4.4H.4Z"/><path class="cls-34" d="M36.53,45.79c-2.92,0-5.46-.65-7.62-1.96-2.16-1.31-3.84-3.11-5.03-5.42-1.19-2.31-1.79-4.95-1.79-7.92v-1.2c0-3.01,.59-5.69,1.76-8.05s2.79-4.2,4.84-5.55c2.06-1.34,4.4-2.01,7.03-2.01,2.8,0,5.15,.56,7.05,1.69,1.9,1.12,3.33,2.72,4.3,4.79,.97,2.07,1.46,4.55,1.46,7.45v4.12H29.56l-.06,.14c.08,1.62,.42,3.06,1.01,4.32,.6,1.26,1.46,2.25,2.57,2.97,1.11,.72,2.47,1.09,4.07,1.09s3.2-.23,4.57-.69c1.37-.46,2.64-1.1,3.8-1.94l2.26,4.52c-1.22,1.03-2.77,1.9-4.66,2.6-1.89,.7-4.09,1.06-6.6,1.06Zm-6.86-19.12h11.98v-.74c0-1.35-.2-2.54-.61-3.56-.41-1.02-1.05-1.81-1.92-2.39-.87-.57-1.97-.86-3.3-.86-1.16,0-2.18,.32-3.06,.97-.88,.65-1.58,1.53-2.1,2.64-.52,1.12-.88,2.38-1.07,3.79l.09,.14Z"/><path class="cls-34" d="M52.83,45.19v-4.4l4.32-.86V19.41h-4.72v-5.15h4.72v-3.63c0-3.39,.94-6.01,2.82-7.86s4.5-2.77,7.88-2.77c.78,0,1.62,.06,2.52,.19s1.71,.28,2.46,.47l-.71,5.4c-.4-.09-.9-.18-1.49-.24-.59-.07-1.17-.1-1.74-.1-1.53,0-2.66,.42-3.42,1.26s-1.13,2.06-1.13,3.66v3.63h6.92v5.15h-6.92v20.52l5.4,.86v4.4h-16.89Z"/></g><g><path class="cls-34" d="M157.65,46.39c-2.9,0-5.41-.66-7.53-1.99-2.12-1.32-3.76-3.15-4.92-5.49-1.15-2.33-1.73-5.03-1.73-8.08v-1c0-2.99,.57-5.66,1.71-8s2.78-4.19,4.9-5.53,4.64-2.01,7.53-2.01c2.65,0,4.96,.42,6.92,1.27,1.96,.85,3.57,1.9,4.83,3.16l.03,8.26h-5.49l-1.06-5.46c-.53-.55-1.21-1-2.03-1.33-.82-.33-1.72-.5-2.69-.5-1.58,0-2.93,.43-4.04,1.29-1.11,.86-1.96,2.04-2.54,3.56-.58,1.52-.87,3.28-.87,5.3v1c0,2.17,.3,4,.89,5.49,.59,1.49,1.42,2.61,2.47,3.37,1.06,.76,2.27,1.14,3.64,1.14,1.66,0,3.01-.45,4.04-1.34,1.04-.9,1.72-2.13,2.04-3.72h6.23l.09,.17c-.23,2.02-.83,3.82-1.79,5.39-.96,1.57-2.32,2.81-4.06,3.7-1.74,.9-3.94,1.34-6.59,1.34Z"/><path class="cls-34" d="M184.58,46.39c-3.14,0-5.59-.81-7.35-2.43-1.75-1.62-2.63-3.85-2.63-6.69,0-1.94,.53-3.65,1.6-5.12,1.07-1.47,2.63-2.62,4.69-3.44,2.06-.83,4.55-1.24,7.49-1.24h4.72v-2.6c0-1.64-.49-2.94-1.47-3.92-.98-.97-2.41-1.46-4.27-1.46-1.07,0-2.01,.13-2.83,.39-.82,.26-1.55,.62-2.2,1.1l-.66,4.17h-5.29l-.06-7.63c1.52-.99,3.22-1.78,5.09-2.36,1.87-.58,3.95-.87,6.23-.87,3.93,0,7.02,.92,9.28,2.76,2.26,1.84,3.39,4.47,3.39,7.9v13.63c0,.42,0,.83,.01,1.23s.03,.79,.07,1.17l3.14,.4v4.4h-9.4c-.19-.67-.37-1.31-.53-1.94s-.28-1.26-.36-1.89c-1.03,1.3-2.27,2.36-3.73,3.19-1.46,.83-3.1,1.24-4.93,1.24Zm1.63-5.57c1.45,0,2.8-.34,4.06-1.02,1.26-.68,2.2-1.53,2.83-2.56v-5.17h-4.8c-2.15,0-3.78,.5-4.87,1.5-1.1,1-1.64,2.17-1.64,3.5,0,1.2,.38,2.12,1.14,2.77,.76,.65,1.86,.97,3.29,.97Z"/><path class="cls-34" d="M219.08,46.39c-2.5,0-4.63-.63-6.4-1.89s-3.13-3.02-4.07-5.27c-.94-2.26-1.41-4.89-1.41-7.9v-.6c0-3.3,.47-6.17,1.41-8.63,.94-2.46,2.31-4.37,4.09-5.75s3.9-2.06,6.36-2.06c1.77,0,3.32,.34,4.65,1.01,1.32,.68,2.46,1.64,3.42,2.9V6.49l-4.54-.86V1.2h11.75V40.53l4.29,.86v4.4h-10.52l-.57-3.75c-.97,1.43-2.16,2.51-3.56,3.25-1.4,.73-3.03,1.1-4.87,1.1Zm2.03-5.69c1.37,0,2.55-.3,3.54-.9,.99-.6,1.81-1.47,2.46-2.62v-13.63c-.63-1.11-1.44-1.98-2.44-2.62-1-.64-2.17-.96-3.5-.96-1.56,0-2.84,.45-3.84,1.36-1,.91-1.74,2.16-2.21,3.77-.48,1.61-.71,3.48-.71,5.62v.6c0,2.86,.53,5.14,1.59,6.83,1.06,1.7,2.77,2.54,5.13,2.54Z"/><path class="cls-34" d="M256.21,46.39c-2.92,0-5.46-.65-7.62-1.96-2.16-1.31-3.84-3.11-5.03-5.42-1.19-2.31-1.79-4.95-1.79-7.92v-1.2c0-3.01,.59-5.69,1.76-8.05s2.79-4.2,4.85-5.55c2.06-1.34,4.4-2.01,7.03-2.01,2.8,0,5.15,.56,7.05,1.69,1.9,1.12,3.33,2.72,4.3,4.79,.97,2.07,1.46,4.55,1.46,7.45v4.12h-18.98l-.06,.14c.08,1.62,.42,3.06,1.01,4.32,.6,1.26,1.46,2.25,2.57,2.97,1.11,.73,2.47,1.09,4.07,1.09s3.2-.23,4.57-.69c1.37-.46,2.64-1.1,3.8-1.94l2.26,4.52c-1.22,1.03-2.77,1.9-4.66,2.6-1.89,.7-4.09,1.06-6.6,1.06Zm-6.86-19.12h11.98v-.74c0-1.35-.21-2.54-.62-3.56-.41-1.02-1.05-1.81-1.92-2.39-.87-.57-1.97-.86-3.3-.86-1.16,0-2.18,.32-3.06,.97-.88,.65-1.58,1.53-2.1,2.64-.52,1.12-.88,2.38-1.07,3.79l.09,.14Z"/><path class="cls-34" d="M272.11,45.79v-4.4l4.32-.86V20.15l-4.55-.86v-4.43h11.15l.34,4.06c1.01-1.47,2.27-2.61,3.79-3.42,1.51-.81,3.27-1.21,5.27-1.21s3.75,.45,5.19,1.36c1.44,.91,2.53,2.27,3.27,4.1,.95-1.7,2.21-3.03,3.76-4,1.55-.97,3.38-1.46,5.47-1.46,3.11,0,5.55,1.06,7.33,3.17,1.78,2.12,2.67,5.32,2.67,9.6v13.46l4.32,.86v4.4h-15.58v-4.4l4.06-.86v-13.49c0-2.61-.44-4.44-1.31-5.49-.88-1.05-2.16-1.57-3.86-1.57-1.58,0-2.88,.5-3.9,1.51-1.02,1.01-1.68,2.3-1.99,3.86v15.18l3.92,.86v4.4h-15.01v-4.4l3.92-.86v-13.49c0-2.52-.45-4.32-1.34-5.42s-2.19-1.64-3.89-1.64c-1.41,0-2.6,.29-3.56,.86-.96,.57-1.73,1.38-2.3,2.43v17.27l4.03,.86v4.4h-15.52Z"/><path class="cls-34" d="M333.42,58.29c-.59,0-1.27-.06-2.04-.17-.77-.11-1.44-.26-2.01-.43l.8-5.4c.34,.06,.76,.1,1.24,.14,.49,.04,.87,.06,1.16,.06,1.2,0,2.21-.38,3.03-1.13s1.49-1.8,2-3.13l.94-2.49-10.58-25.93-3.6-.51v-4.43h14.98v4.43l-3.8,.57,5.37,14.41,.94,2.69h.17l6.35-17.12-3.8-.54v-4.43h14.21v4.43l-3.34,.49-11.98,30.67c-.57,1.45-1.28,2.77-2.13,3.96-.85,1.19-1.92,2.13-3.2,2.83-1.29,.7-2.85,1.04-4.7,1.04Z"/></g><g><circle class="cls-34" cx="131.43" cy="20.73" r="3.84"/><circle class="cls-38" cx="132.33" cy="21.74" r="3.84"/><circle class="cls-57" cx="133.1" cy="22.82" r="3.84"/><circle class="cls-60" cx="133.74" cy="23.95" r="3.84"/><circle class="cls-83" cx="134.24" cy="25.14" r="3.84"/><circle class="cls-23" cx="134.61" cy="26.36" r="3.84"/><circle class="cls-23" cx="134.85" cy="27.61" r="3.84"/><circle class="cls-10" cx="134.96" cy="28.88" r="3.84"/><circle class="cls-10" cx="134.94" cy="30.14" r="3.84"/><circle class="cls-9" cx="134.78" cy="31.4" r="3.84"/><circle class="cls-9" cx="134.49" cy="32.64" r="3.84"/><circle class="cls-20" cx="134.07" cy="33.85" r="3.84"/><circle class="cls-20" cx="133.52" cy="35.02" r="3.84"/><circle class="cls-25" cx="132.83" cy="36.14" r="3.84"/><circle class="cls-69" cx="132.01" cy="37.19" r="3.84"/><circle class="cls-32" cx="131.06" cy="38.17" r="3.84"/><circle class="cls-32" cx="130.03" cy="39.02" r="3.84"/><circle class="cls-70" cx="128.93" cy="39.74" r="3.84"/><circle class="cls-58" cx="127.77" cy="40.33" r="3.84"/><circle class="cls-61" cx="126.57" cy="40.78" r="3.84"/><circle class="cls-61" cx="125.34" cy="41.1" r="3.84"/><circle class="cls-76" cx="124.08" cy="41.29" r="3.84"/><circle class="cls-76" cx="122.81" cy="41.35" r="3.84"/><circle class="cls-16" cx="121.55" cy="41.28" r="3.84"/><circle class="cls-16" cx="120.29" cy="41.07" r="3.84"/><circle class="cls-47" cx="119.06" cy="40.73" r="3.84"/><circle class="cls-47" cx="117.87" cy="40.26" r="3.84"/><circle class="cls-66" cx="116.72" cy="39.66" r="3.84"/><circle class="cls-89" cx="115.62" cy="38.92" r="3.84"/><circle class="cls-52" cx="114.6" cy="38.05" r="3.84"/><circle class="cls-52" cx="113.66" cy="37.13" r="3.84"/><circle class="cls-27" cx="112.75" cy="36.21" r="3.84"/><circle class="cls-27" cx="111.83" cy="35.29" r="3.84"/><circle class="cls-48" cx="110.91" cy="34.38" r="3.84"/><circle class="cls-64" cx="109.99" cy="33.46" r="3.84"/><circle class="cls-29" cx="109.08" cy="32.54" r="3.84"/><circle class="cls-29" cx="108.16" cy="31.62" r="3.84"/><circle class="cls-6" cx="107.24" cy="30.71" r="3.84"/><circle class="cls-18" cx="106.32" cy="29.79" r="3.84"/><circle class="cls-35" cx="105.41" cy="28.87" r="3.84"/><circle class="cls-35" cx="104.49" cy="27.95" r="3.84"/><circle class="cls-31" cx="103.57" cy="27.04" r="3.84"/><circle class="cls-31" cx="102.65" cy="26.12" r="3.84"/><circle class="cls-11" cx="101.74" cy="25.2" r="3.84"/><circle class="cls-15" cx="100.82" cy="24.29" r="3.84"/><circle class="cls-71" cx="99.9" cy="23.37" r="3.84"/><circle class="cls-71" cx="98.98" cy="22.45" r="3.84"/><circle class="cls-42" cx="98.07" cy="21.53" r="3.84"/><circle class="cls-42" cx="97.14" cy="20.61" r="3.84"/><circle class="cls-43" cx="96.13" cy="19.73" r="3.84"/><circle class="cls-40" cx="95.04" cy="18.97" r="3.84"/><circle class="cls-59" cx="93.9" cy="18.35" r="3.84"/><circle class="cls-59" cx="92.7" cy="17.87" r="3.84"/><circle class="cls-85" cx="91.48" cy="17.51" r="3.84"/><circle class="cls-85" cx="90.23" cy="17.29" r="3.84"/><circle class="cls-73" cx="88.96" cy="17.2" r="3.84"/><circle class="cls-73" cx="87.69" cy="17.24" r="3.84"/><circle class="cls-24" cx="86.44" cy="17.41" r="3.84"/><circle class="cls-77" cx="85.2" cy="17.72" r="3.84"/><circle class="cls-14" cx="83.99" cy="18.16" r="3.84"/><circle class="cls-86" cx="82.83" cy="18.73" r="3.84"/><circle class="cls-46" cx="81.72" cy="19.43" r="3.84"/><circle class="cls-46" cx="80.68" cy="20.26" r="3.84"/><circle class="cls-53" cx="79.72" cy="21.23" r="3.84"/><circle class="cls-53" cx="78.88" cy="22.27" r="3.84"/><circle class="cls-8" cx="78.18" cy="23.38" r="3.84"/><circle class="cls-8" cx="77.61" cy="24.54" r="3.84"/><circle class="cls-19" cx="77.17" cy="25.75" r="3.84"/><circle class="cls-75" cx="76.86" cy="26.98" r="3.84"/><circle class="cls-39" cx="76.69" cy="28.24" r="3.84"/><circle class="cls-13" cx="76.65" cy="29.51" r="3.84"/><circle class="cls-63" cx="76.74" cy="30.77" r="3.84"/><circle class="cls-63" cx="76.96" cy="32.03" r="3.84"/><circle class="cls-37" cx="77.32" cy="33.25" r="3.84"/><circle class="cls-37" cx="77.8" cy="34.44" r="3.84"/><circle class="cls-3" cx="78.42" cy="35.59" r="3.84"/><circle class="cls-3" cx="79.18" cy="36.67" r="3.84"/><circle class="cls-51" cx="80.06" cy="37.69" r="3.84"/><circle class="cls-51" cx="81.06" cy="38.61" r="3.84"/><circle class="cls-41" cx="82.13" cy="39.39" r="3.84"/><circle class="cls-12" cx="83.26" cy="40.05" r="3.84"/><circle class="cls-12" cx="84.44" cy="40.57" r="3.84"/><circle class="cls-79" cx="85.66" cy="40.96" r="3.84"/><circle class="cls-79" cx="86.9" cy="41.21" r="3.84"/><circle class="cls-2" cx="88.17" cy="41.34" r="3.84"/><circle class="cls-88" cx="89.43" cy="41.33" r="3.84"/><circle class="cls-5" cx="90.7" cy="41.19" r="3.84"/><circle class="cls-5" cx="91.94" cy="40.92" r="3.84"/><circle class="cls-67" cx="93.15" cy="40.51" r="3.84"/><circle class="cls-55" cx="94.33" cy="39.98" r="3.84"/><circle class="cls-33" cx="95.45" cy="39.31" r="3.84"/><circle class="cls-33" cx="96.51" cy="38.51" r="3.84"/><circle class="cls-4" cx="97.49" cy="37.59" r="3.84"/><circle class="cls-80" cx="98.41" cy="36.67" r="3.84"/><circle class="cls-87" cx="99.33" cy="35.75" r="3.84"/><circle class="cls-84" cx="100.24" cy="34.84" r="3.84"/><circle class="cls-84" cx="101.16" cy="33.92" r="3.84"/><circle class="cls-30" cx="102.08" cy="33" r="3.84"/><circle class="cls-30" cx="103" cy="32.08" r="3.84"/><circle class="cls-7" cx="103.91" cy="31.17" r="3.84"/><circle class="cls-82" cx="104.83" cy="30.25" r="3.84"/><circle class="cls-91" cx="105.75" cy="29.33" r="3.84"/><circle class="cls-74" cx="106.67" cy="28.41" r="3.84"/><circle class="cls-36" cx="107.58" cy="27.5" r="3.84"/><circle class="cls-44" cx="108.5" cy="26.58" r="3.84"/><circle class="cls-81" cx="109.42" cy="25.66" r="3.84"/><circle class="cls-81" cx="110.34" cy="24.74" r="3.84"/><circle class="cls-1" cx="111.25" cy="23.83" r="3.84"/><circle class="cls-45" cx="112.17" cy="22.91" r="3.84"/><circle class="cls-45" cx="113.09" cy="21.99" r="3.84"/><circle class="cls-65" cx="114.01" cy="21.07" r="3.84"/><circle class="cls-50" cx="114.97" cy="20.15" r="3.84"/><circle class="cls-17" cx="116.02" cy="19.33" r="3.84"/><circle class="cls-62" cx="117.14" cy="18.65" r="3.84"/><circle class="cls-72" cx="118.31" cy="18.09" r="3.84"/><circle class="cls-26" cx="119.52" cy="17.67" r="3.84"/><circle class="cls-26" cx="120.76" cy="17.38" r="3.84"/><circle class="cls-49" cx="122.02" cy="17.22" r="3.84"/><circle class="cls-78" cx="123.29" cy="17.2" r="3.84"/><circle class="cls-68" cx="124.55" cy="17.31" r="3.84"/><circle class="cls-54" cx="125.8" cy="17.55" r="3.84"/><circle class="cls-22" cx="127.02" cy="17.92" r="3.84"/><circle class="cls-21" cx="128.21" cy="18.42" r="3.84"/><circle class="cls-56" cx="129.35" cy="19.06" r="3.84"/><circle class="cls-90" cx="130.42" cy="19.83" r="3.84"/><circle class="cls-28" cx="131.43" cy="20.73" r="3.84"/></g></svg>