<?xml version="1.0" encoding="UTF-8"?><svg id="Layer_1" xmlns="http://www.w3.org/2000/svg" xmlns:xlink="http://www.w3.org/1999/xlink" viewBox="0 0 224.16 232.55"><defs><style>.cls-1{fill:#fff;}.cls-2{fill:#2d2b29;}.cls-3{fill:#adafd8;}.cls-4{fill:#a7aad5;}.cls-5{fill:#fffdfc;}.cls-6{fill:#087cb6;}.cls-7{fill:#a0a2d1;}.cls-8{fill:#fefeff;}.cls-9{fill:#507abd;}.cls-10{fill:#c9cae6;}.cls-11{clip-path:url(#clippath-1);}.cls-12{fill:#5b67af;}.cls-13{fill:#fbfdfe;}.cls-14{fill:#33312f;}.cls-15{fill:#2a2927;}.cls-16{fill:#f04c24;}.cls-17{clip-path:url(#clippath);}.cls-18,.cls-19{fill:none;}.cls-20{fill:#292726;}.cls-21{fill:#f04a24;}.cls-22{fill:#343230;}.cls-23{fill:#f04e25;}.cls-24{fill:#f04d24;}.cls-25{fill:#231f20;}.cls-19{stroke:#808285;stroke-miterlimit:10;}.cls-26{fill:#449cd6;}.cls-27{fill:#fefefe;}</style><clipPath id="clippath"><rect class="cls-18" x="80.31" y="106.31" width="55.53" height="39.27"/></clipPath><clipPath id="clippath-1"><rect class="cls-18" x="80.31" y="106.31" width="55.53" height="39.27"/></clipPath></defs><circle class="cls-18" cx="112.08" cy="120.47" r="112.08"/><path class="cls-25" d="M141.83,33.84c.06,.22,.03,.45-.23,.44-.2,0-.42-.13-.57-.26-.05-.04,.08-.29,.15-.51-.96-.42-1.59-1.28-2.16-2.21-.14-.23-.36-.42-.55-.62h0l-.09-.13s-.01-.03-.03-.03l-.21-.09h0c-.27-.19-.54-.37-.81-.56h0l-.09-.12s-.03-.04-.06-.04c-.56-.19-1.12-.4-1.72-.23-.15,.04-.36,.14-.4,.26-.04,.12,.07,.32,.17,.45,.12,.16,.28,.3,.45,.4,1.18,.7,1.9,1.76,2.4,2.99,.78,1.9,2.28,2.76,4.22,2.91,.98,.07,1.98-.06,3.01-.1,0,.04,0,.17,0,.3,0,1.12-.03,2.23,.02,3.35,.04,.95-.65,1.47-1.6,1.15-3.17-1.07-5.93-2.82-8.27-5.21-3.11-3.18-5.02-6.98-5.78-11.36-.08-.48-.12-.96-.18-1.44-.01-.08-.05-.16-.08-.24v-3.55c.03-.08,.07-.16,.08-.24,.07-.48,.1-.96,.19-1.44,.69-4.04,2.38-7.61,5.12-10.65,3.41-3.77,7.63-6.05,12.66-6.82,.49-.07,.99-.16,1.48-.24h3.07c.55,.08,1.1,.15,1.64,.24,5.02,.76,9.24,3.04,12.64,6.79,2.76,3.05,4.53,6.62,5.13,10.69,1.06,7.15-.95,13.36-6.04,18.52-2.22,2.25-4.87,3.85-7.86,4.9-.2,.07-.42,.12-.63,.12-.7,.02-1.1-.37-1.1-1.08,0-2.03,.04-4.06-.02-6.09-.02-.75-.23-1.51-.47-2.22-.17-.49-.53-.92-.81-1.38,.55-.09,1.15-.18,1.75-.3,2.02-.41,3.89-1.13,5.35-2.66,1.36-1.43,2-3.18,2.27-5.09,.21-1.48,.29-2.97-.07-4.45-.31-1.26-.88-2.38-1.73-3.36-.13-.15-.2-.27-.13-.49,.57-1.73,.39-3.44-.2-5.13-.09-.26-.28-.29-.47-.26-.62,.1-1.28,.12-1.84,.36-1.13,.49-2.21,1.09-3.29,1.67-.22,.12-.4,.16-.63,.1-3.31-.84-6.61-.84-9.92,0-.24,.06-.42,.03-.63-.11-1.3-.84-2.64-1.59-4.17-1.93-1.23-.27-1.41-.17-1.7,1.05-.35,1.44-.39,2.87,.07,4.29,.03,.11,0,.29-.08,.38-1.64,1.89-2.17,4.12-1.99,6.56,.11,1.55,.38,3.06,1.07,4.47,1.11,2.26,2.97,3.59,5.33,4.27,.92,.27,1.89,.4,2.83,.59l.36,.07c-.77,.76-1.13,1.67-1.31,2.68-.02,.09-.16,.2-.27,.24-1.04,.42-2.11,.59-3.23,.34h-.12l.07,.06Z"/><path class="cls-20" d="M144.87,34.77l-.41-.44c.17-.12,.33-.29,.52-.33,.11-.02,.27,.17,.4,.27l-.52,.49Z"/><path class="cls-15" d="M143.18,34.77c-.2-.2-.41-.32-.43-.46-.04-.27,.22-.36,.44-.32,.16,.03,.3,.19,.45,.29l-.45,.48Z"/><path class="cls-2" d="M140.17,33.73c-.32,0-.63-.31-.58-.53,.02-.1,.17-.23,.27-.25,.24-.03,.56,.29,.51,.51-.02,.12-.15,.21-.2,.27Z"/><path class="cls-20" d="M138.79,31.37c.17,.29,.3,.47,.38,.67,.02,.05-.16,.17-.25,.26-.13-.17-.29-.33-.39-.52-.03-.05,.11-.18,.26-.4Z"/><path class="cls-14" d="M138.34,30.51s.03,.01,.03,.03l.09,.13h0c-.07,.15-.14,.3-.21,.45-.13-.09-.32-.16-.39-.29-.17-.28,.07-.35,.28-.41h0l.21,.08Z"/><path class="cls-22" d="M137.18,29.7s.05,.01,.06,.04l.09,.13h0c.02,.22,.06,.47-.3,.35-.11-.03-.18-.17-.26-.26,.1-.06,.2-.12,.3-.18,.04-.03,.08-.05,.12-.08Z"/><path class="cls-27" d="M138.34,30.51l-.21-.09,.21,.09Z"/><path class="cls-27" d="M137.33,29.87l-.09-.13,.09,.13Z"/><path class="cls-27" d="M138.46,30.68l-.09-.13,.09,.13Z"/><path class="cls-27" d="M141.83,33.84l-.07-.06h.12s-.03,.04-.05,.06Z"/><g><path class="cls-12" d="M196.9,130.84h-.05s-.05-.02-.08-.03c-.99-.31-1.96-.67-2.9-1.08-1.79-.79-3.47-1.77-5.05-2.91-.04-.03-.06-.06-.06-.11-.03-.48-.07-.97-.1-1.45-.02-.25-.02-.5-.03-.74,0-.03,0-.07,0-.1,0-.3,0-.6,0-.9,0-.03,0-.07,0-.1,0-.01,0-.03,0-.04,.01-.66,.05-1.33,.11-1.99,.04-.37,.08-.73,.13-1.1,.03-.23,.07-.46,.1-.68,.09-.55,.2-1.1,.33-1.65,.44-1.87,1.08-3.66,1.91-5.39,.66-1.38,1.42-2.69,2.27-3.95,.03-.04,.07-.07,.11-.09,.82-.37,1.66-.71,2.51-.99,1.22-.41,2.47-.73,3.74-.96,.1-.02,.2-.03,.31-.05,.31,.56,.59,1.13,.84,1.72,.1-.01,.2-.03,.3-.04,.31-.04,.61-.07,.92-.11,.16-.02,.32-.03,.48-.04,.5-.04,1-.06,1.49-.07,.66-.01,1.33,0,1.99,.04,.43,.03,.85,.07,1.28,.11,.23,.02,.46,.06,.69,.09,.07,0,.13,.02,.2,.02,.26-.59,.53-1.16,.84-1.71,.02,0,.03,0,.05,0,.46,.09,.92,.17,1.37,.27,1.78,.4,3.5,.98,5.15,1.73,.04,.02,.07,.04,.1,.08,.68,1.01,1.31,2.05,1.87,3.13,.88,1.7,1.58,3.48,2.08,5.33,.23,.86,.42,1.74,.56,2.62,.02,.12,.03,.24,.05,.36,.02,.12,.04,.23,.06,.35,.05,.41,.09,.83,.13,1.24,.04,.47,.07,.94,.08,1.42v1.08s.01,.04,.01,.05c0,.18,0,.35-.01,.53,0,.11,0,.22,0,.34-.03,.55-.06,1.1-.12,1.66,0,.05-.02,.08-.06,.11-1.14,.83-2.33,1.57-3.58,2.21-1.4,.72-2.86,1.31-4.37,1.78-.03,0-.05,.02-.08,.03h-.05c-.65-.88-1.23-1.81-1.73-2.8,.95-.36,1.86-.79,2.73-1.31-.01-.01-.02-.02-.03-.03-.17-.14-.35-.27-.52-.41-.13-.1-.08-.09-.22-.03-.97,.44-1.96,.8-2.98,1.08-.83,.23-1.66,.4-2.51,.51-.31,.04-.62,.08-.93,.1-.33,.03-.65,.04-.98,.05-.82,.03-1.64,0-2.46-.08-.41-.04-.83-.09-1.24-.17-.18-.03-.35-.06-.53-.1-.86-.17-1.7-.4-2.53-.68-.64-.22-1.26-.46-1.88-.74-.06-.03-.09-.02-.14,.02-.18,.15-.36,.28-.54,.43-.02,.01-.03,.03-.05,.05,.88,.52,1.78,.95,2.73,1.31-.01,.03-.02,.05-.03,.07-.38,.73-.8,1.44-1.26,2.12-.14,.21-.29,.41-.43,.61Zm5.34-10.85v-.03c0-.22,0-.44-.04-.65-.08-.54-.28-1.04-.61-1.48-.48-.64-1.12-1.04-1.92-1.15-.52-.07-1.01,.02-1.48,.24-.61,.3-1.06,.76-1.36,1.37-.36,.73-.46,1.5-.3,2.29,.14,.68,.45,1.28,.97,1.75,.62,.57,1.35,.83,2.2,.72,.44-.06,.84-.22,1.2-.48,.56-.41,.94-.95,1.15-1.61,.06-.19,.1-.38,.13-.57,.02-.14,.03-.27,.04-.41Zm10.66-.15c0-.12-.01-.23-.02-.35-.05-.53-.21-1.02-.49-1.46-.49-.75-1.16-1.22-2.06-1.35-.23-.03-.46-.03-.69,0-.54,.08-1.02,.31-1.43,.67-.6,.54-.93,1.22-1.05,2.01-.05,.37-.05,.74,.02,1.11,.11,.62,.36,1.18,.79,1.65,.52,.58,1.17,.92,1.96,.95,.19,0,.38,0,.57-.04,.19-.04,.37-.09,.55-.16,.6-.25,1.05-.67,1.38-1.23,.33-.56,.48-1.16,.48-1.81Z"/><path class="cls-10" d="M188.63,124.51h-.02c0-.37,0-.73,0-1.1h.02s0,.07,0,.1c0,.3,0,.6,0,.9,0,.03,0,.07,0,.1Z"/><path class="cls-4" d="M220.7,123.05s0,0,.01,0v0Z"/><path class="cls-3" d="M220.72,124.72h-.01c0-.17,0-.35,.01-.53,0-.02,0-.04,0-.05v.58Z"/><path class="cls-8" d="M212.91,119.85c0,.65-.15,1.25-.48,1.81-.33,.55-.78,.97-1.38,1.23-.18,.07-.36,.13-.55,.16-.19,.04-.38,.05-.57,.04-.79-.03-1.44-.37-1.96-.95-.42-.47-.68-1.03-.79-1.65-.07-.37-.07-.74-.02-1.11,.11-.79,.45-1.47,1.05-2.01,.41-.37,.89-.59,1.43-.67,.23-.03,.46-.04,.69,0,.9,.12,1.57,.6,2.06,1.35,.29,.44,.45,.93,.49,1.46,.01,.12,.01,.23,.02,.35Z"/><path class="cls-8" d="M202.24,120c0,.14-.02,.27-.04,.41-.03,.2-.07,.39-.13,.57-.22,.66-.59,1.2-1.15,1.61-.36,.26-.76,.43-1.2,.48-.85,.11-1.58-.15-2.2-.72-.52-.47-.83-1.07-.97-1.75-.16-.8-.07-1.57,.3-2.29,.3-.6,.75-1.07,1.36-1.37,.47-.23,.96-.31,1.48-.24,.8,.1,1.44,.51,1.92,1.15,.33,.44,.53,.93,.61,1.48,.03,.22,.04,.44,.04,.65v.03Z"/><path class="cls-7" d="M202.24,120v0Z"/></g><g><path class="cls-6" d="M5.1,193.47v-14.74c0-2.46,0-4.91,0-7.37v-7.37c0-.37,0-.74,0-1.11,0-.34,0-.57,.22-.85,.34-.45,.75-.87,1.23-1.17,.1-.06,.21-.13,.32-.16,.41-.13,.95-.05,1.39-.05h29.49c.06,0,.13,0,.19,0h0c1.57,.66,1.9,1.91,1.89,3.5-.05,9.41-.02,18.81-.03,28.22,0,1.84-1,2.83-2.85,2.83-5.19,0-10.37,0-15.56,0-4.53,0-9.06,0-13.6,0-1.13,0-1.96-.45-2.49-1.46-.05-.1-.15-.17-.22-.26,0,0,0,0,0-.01Zm18.64-3.43s.02,0,.02-.02c0-.27,0-.5,0-.73,0-2.55-.02-5.1,.04-7.65,.02-.8,.16-1.63,.43-2.38,.4-1.13,1.56-1.68,2.9-1.55,1.24,.12,1.99,.79,2.22,2.07,.11,.64,.15,1.3,.16,1.95,.02,2.55,0,5.1,0,7.65,0,.21,0,.42,0,.65,0,0,0,.02,.02,.02h5.09s.02,0,.02-.02c.01-.18,.03-.33,.03-.49,0-2.94,.03-5.88-.01-8.81-.01-1.05-.1-2.12-.3-3.16-.41-2.14-1.57-3.7-3.8-4.14-1.02-.2-2.11-.22-3.15-.13-1.3,.12-2.39,.77-3.25,1.78-.16,.19-.31,.38-.55,.69,0,.01-.03,0-.03,0v-2.09s0-.02-.02-.02h-4.89s-.02,0-.02,.02v16.35s0,.02,.02,.02h5.07Zm-13.46-16.39v16.36s0,.02,.02,.02h5.05s.02,0,.02-.02v-16.36s0-.02-.02-.02h-5.05s-.02,0-.02,.02Zm5.5-4.93c.23-2.1-1.4-3.61-3.48-3.26-1.3,.22-2.29,1.25-2.43,2.58-.23,2.1,1.39,3.61,3.48,3.26,1.31-.22,2.29-1.25,2.44-2.58Z"/><path class="cls-13" d="M23.76,190.03h-5.1v-16.38h4.92v2.15c.26-.33,.42-.53,.58-.73,.86-1,1.95-1.66,3.25-1.78,1.04-.1,2.13-.08,3.15,.13,2.22,.44,3.39,2,3.8,4.14,.2,1.03,.28,2.1,.3,3.16,.04,2.94,.01,5.88,.01,8.81,0,.16-.02,.31-.03,.5h-5.12c0-.23,0-.45,0-.67,0-2.55,.01-5.1,0-7.65,0-.65-.04-1.31-.16-1.95-.23-1.28-.98-1.95-2.22-2.07-1.34-.13-2.5,.42-2.9,1.55-.27,.75-.41,1.58-.43,2.38-.06,2.55-.03,5.1-.04,7.65,0,.24,0,.48,0,.75Z"/><path class="cls-1" d="M10.29,173.63h5.08v16.4h-5.08v-16.4Z"/><path class="cls-13" d="M15.8,168.37c0,1.68-1.32,2.97-3.01,2.96-1.66-.01-2.94-1.3-2.94-2.96,0-1.68,1.31-2.97,3.01-2.96,1.65,.01,2.95,1.32,2.95,2.97Z"/></g><g><path class="cls-26" d="M51.71,78.59c-9.4,.05-17.35-7.77-17.13-17.58,.2-9.13,7.82-16.97,17.64-16.74,9.11,.22,16.94,7.83,16.69,17.63-.23,9.14-7.78,16.75-17.2,16.68Zm9.99-23.33l-1.97,.56-.05-.11c.73-.55,1.3-1.22,1.56-2.08-.73,.27-1.47,.54-2.19,.81-.27,.1-.47,.02-.69-.17-1.18-1.04-2.57-1.28-4.04-.82-1.49,.47-2.43,1.53-2.73,3.07-.11,.57-.07,1.17-.1,1.78-3.38-.25-6.17-1.7-8.39-4.28-.83,1.16-1.05,3.64,1.04,5.51l-1.63-.46c-.12,1.7,.9,3.04,3.09,4.1h-1.69c.69,1.78,1.94,2.7,3.81,2.91-1.8,1.36-3.77,1.86-5.93,1.73,3.21,1.96,6.61,2.33,10.14,1.19,4.38-1.42,7.61-5.73,7.81-10.34,.04-.87,.12-1.64,.97-2.12,.19-.11,.34-.31,.47-.49,.19-.26,.35-.53,.52-.8l.05-.02s-.02,0-.02,0c0,0-.01,.02-.02,.03Z"/><path class="cls-8" d="M61.7,55.25c-.17,.27-.33,.55-.52,.8-.14,.18-.28,.38-.47,.49-.85,.48-.93,1.25-.97,2.12-.2,4.61-3.43,8.92-7.81,10.34-3.52,1.14-6.93,.77-10.14-1.19,2.16,.13,4.13-.37,5.93-1.73-1.87-.21-3.12-1.13-3.81-2.91h1.69c-2.19-1.06-3.21-2.4-3.09-4.1l1.63,.46c-2.08-1.87-1.87-4.35-1.04-5.51,2.22,2.58,5.01,4.03,8.39,4.28,.03-.61-.01-1.21,.1-1.78,.31-1.54,1.25-2.6,2.73-3.07,1.47-.47,2.86-.23,4.04,.82,.22,.19,.42,.27,.69,.17,.73-.27,1.46-.54,2.19-.81-.26,.86-.83,1.52-1.56,2.08l.05,.11,1.97-.56h0Z"/><path class="cls-8" d="M61.71,55.26s.01-.02,.02-.03c0,0,.02,0,.02,0l-.05,.02h0Z"/></g><g><path class="cls-21" d="M173.26,227.03h-3.22c-.07-.03-.13-.07-.2-.08-.81-.13-1.63-.22-2.44-.39-10.9-2.29-17.91-13.39-15.32-24.23,2.62-10.93,13.35-17.56,24.3-15.01,7.93,1.85,14.04,8.53,15.22,16.64,.07,.46,.15,.91,.22,1.37v3.22c-.03,.08-.07,.16-.08,.24-.16,.95-.26,1.92-.49,2.86-1.89,7.94-8.53,13.99-16.62,15.16-.46,.07-.91,.15-1.37,.22Zm6.1-30.49c-.13-.02-.23-.04-.33-.06-1.54-.36-3.08-.72-4.61-1.07-.66-.15-.77-.1-1,.53-.74,1.98-1.47,3.96-2.19,5.95-.08,.23-.2,.31-.44,.34-1.05,.12-2.11,.21-3.15,.41-1.69,.32-3.28,.94-4.77,1.83-.71-.76-1.57-1.13-2.6-1.12-1.5,.01-2.73,.92-3.13,2.32-.43,1.53,.12,3.03,1.42,3.82,.19,.11,.25,.22,.22,.43-.27,1.76,.26,3.31,1.32,4.69,1.41,1.82,3.31,2.93,5.45,3.69,2.99,1.05,6.06,1.26,9.17,.76,2.31-.37,4.49-1.12,6.39-2.51,2.34-1.71,3.79-3.88,3.33-6.95,1.98-1.18,2.04-3.66,1-5.02-1.05-1.37-3.5-1.84-5.16-.18-1.22-.71-2.5-1.29-3.89-1.58-1.37-.29-2.77-.49-4.16-.73,0,.04,0,.01,0-.01,.66-1.81,1.32-3.63,1.98-5.44,.09-.25,.25-.21,.44-.16,1.36,.33,2.71,.66,4.08,.97,.32,.07,.46,.19,.52,.53,.35,1.96,2.61,2.85,4.19,1.67,.99-.74,1.37-2.02,.91-3.11-.5-1.18-1.72-1.88-2.94-1.66-.96,.18-1.6,.79-2.04,1.67Z"/><path class="cls-5" d="M179.36,196.55c.45-.88,1.08-1.49,2.04-1.67,1.22-.23,2.44,.48,2.94,1.66,.46,1.08,.08,2.37-.91,3.11-1.58,1.18-3.85,.29-4.19-1.67-.06-.34-.2-.46-.52-.53-1.36-.3-2.72-.64-4.08-.97-.19-.05-.34-.09-.44,.16-.65,1.82-1.32,3.63-1.98,5.44,0,.02,0,.05,0,.01,1.39,.24,2.79,.43,4.16,.73,1.38,.29,2.67,.87,3.89,1.58,1.67-1.66,4.11-1.18,5.16,.18,1.05,1.36,.98,3.84-1,5.02,.47,3.07-.98,5.24-3.33,6.95-1.91,1.39-4.09,2.14-6.39,2.51-3.11,.5-6.18,.29-9.17-.76-2.13-.75-4.04-1.86-5.45-3.69-1.07-1.38-1.59-2.93-1.32-4.69,.03-.21-.04-.32-.22-.43-1.3-.79-1.85-2.29-1.42-3.82,.4-1.4,1.63-2.31,3.13-2.32,1.03,0,1.88,.36,2.6,1.12,1.49-.89,3.07-1.52,4.77-1.83,1.04-.19,2.1-.29,3.15-.41,.24-.03,.35-.11,.44-.34,.72-1.99,1.45-3.97,2.19-5.95,.24-.63,.35-.68,1-.53,1.54,.35,3.08,.71,4.61,1.07,.1,.02,.2,.04,.33,.06Zm-3.03,14.54c1.12,0,2.03-.92,2.01-2.02-.02-1.1-.91-1.99-2.01-2-1.1,0-2.03,.91-2.03,2.02,0,1.11,.91,2.01,2.03,2.01Zm-9.06,0c1.13,0,2.01-.89,2-2.02,0-1.11-.89-2-1.99-2-1.1,0-2.03,.91-2.03,2.01,0,1.11,.9,2.01,2.02,2.01Zm4.23,5.52c2.05,0,3.6-.54,5.03-1.49,.39-.26,.56-.65,.4-.91-.17-.26-.55-.23-.97,.07-1.33,.95-2.83,1.39-4.46,1.32-1.47-.07-2.79-.62-4.01-1.43-.12-.08-.25-.14-.38-.2-.28-.11-.56-.09-.72,.2-.16,.29,.03,.5,.25,.66,.2,.15,.42,.27,.63,.4,1.41,.83,2.89,1.38,4.23,1.38Zm-12.44-7.94c1.26-2.19,1.38-2.33,2.95-3.63-.61-.64-1.35-.91-2.2-.69-1.02,.27-1.68,.96-1.85,2.01-.15,.97,.32,1.71,1.1,2.3Zm21.12-11.14c0,.98,.71,1.68,1.69,1.67,.98,0,1.68-.72,1.67-1.7-.01-.98-.72-1.68-1.7-1.67-.98,0-1.67,.71-1.67,1.7Zm3.96,11.08c.78-.63,1.2-1.37,.99-2.35-.21-1-.84-1.66-1.81-1.91-.8-.2-1.53,.03-2.15,.65,1.3,.96,2.34,2.1,2.97,3.61Z"/><path class="cls-16" d="M176.33,211.09c-1.12,0-2.03-.9-2.03-2.01,0-1.11,.93-2.02,2.03-2.02,1.09,0,1.99,.9,2.01,2,.02,1.1-.89,2.02-2.01,2.02Z"/><path class="cls-16" d="M167.27,211.08c-1.12,0-2.03-.9-2.02-2.01,0-1.1,.93-2.02,2.03-2.01,1.1,0,1.98,.9,1.99,2,0,1.13-.87,2.02-2,2.02Z"/><path class="cls-23" d="M171.5,216.6c-1.33,0-2.82-.55-4.23-1.38-.21-.13-.43-.25-.63-.4-.22-.16-.41-.37-.25-.66,.16-.29,.43-.31,.72-.2,.13,.05,.26,.12,.38,.2,1.22,.81,2.54,1.36,4.01,1.43,1.63,.08,3.12-.37,4.46-1.32,.42-.3,.8-.33,.97-.07,.17,.26,0,.65-.4,.91-1.43,.95-2.98,1.48-5.03,1.49Z"/><path class="cls-16" d="M159.06,208.66c-.78-.6-1.25-1.33-1.1-2.3,.16-1.05,.83-1.74,1.85-2.01,.85-.22,1.59,.05,2.2,.69-1.57,1.29-1.68,1.44-2.95,3.63Z"/><path class="cls-16" d="M180.18,197.52c0-.99,.69-1.69,1.67-1.7,.98,0,1.69,.69,1.7,1.67,.01,.98-.69,1.69-1.67,1.7-.98,0-1.69-.69-1.69-1.67Z"/><path class="cls-24" d="M184.13,208.6c-.63-1.51-1.66-2.65-2.97-3.61,.62-.62,1.34-.85,2.15-.65,.98,.25,1.61,.91,1.81,1.91,.2,.98-.22,1.72-.99,2.35Z"/></g><g><line class="cls-19" x1="97.72" y1="106.53" x2="68.92" y2="78.59"/><line class="cls-19" x1="149.76" y1="43.16" x2="120.85" y2="102.48"/><line class="cls-19" x1="151.54" y1="186.78" x2="122.31" y2="137.66"/><line class="cls-19" x1="94.8" y1="130.55" x2="43.27" y2="160.61"/><line class="cls-19" x1="183.54" y1="120.46" x2="132.09" y2="120.46"/></g><circle class="cls-19" cx="112.08" cy="120.47" r="17.33"/><g class="cls-17"><g class="cls-11"><path class="cls-9" d="M118.88,127.11c-1.67,0-3.23-.65-4.41-1.83l-2.29-2.29-2.29,2.29c-1.18,1.18-2.74,1.83-4.41,1.83s-3.23-.65-4.41-1.83c-.85-.85-1.43-1.92-1.69-3.09-.3-1.4-.07-2.89,.65-4.2,.69-1.25,1.79-2.25,3.09-2.81,1.3-.57,2.73-.66,4.04-.28,1.43,.43,2.52,1.38,3.21,2.06,.07,.07,.19,.2,.48,.51,.25,.27,.81,.86,1.29,1.36l.03-.03h0c.21-.21,.42-.44,.63-.67,.34-.37,.69-.75,1.06-1.12,1.54-1.52,3.04-2.29,4.59-2.35,1.87-.08,3.58,.57,4.82,1.81,2.43,2.43,2.43,6.39,0,8.82-1.18,1.18-2.74,1.83-4.41,1.83m-4.59-6.21l2.28,2.28c.62,.62,1.44,.96,2.31,.96s1.69-.34,2.31-.96c1.27-1.27,1.27-3.34,0-4.62-.83-.83-1.88-.97-2.6-.94-.77,.03-1.63,.52-2.62,1.5-.32,.32-.63,.65-.96,1.01-.23,.26-.47,.51-.72,.77m-8.74-3.26c-.41,0-.84,.09-1.24,.26-1.47,.64-2.34,2.22-2.03,3.67,.13,.61,.44,1.17,.88,1.62,.62,.62,1.44,.96,2.31,.96s1.69-.34,2.31-.96l2.26-2.26c-.47-.48-1-1.04-1.35-1.43-.17-.18-.36-.38-.4-.43-.74-.72-1.36-1.14-1.97-1.32-.25-.07-.51-.11-.77-.11"/></g></g></svg>