<svg xmlns="http://www.w3.org/2000/svg" xmlns:xlink="http://www.w3.org/1999/xlink" viewBox="0 0 314.99 55.39"><defs><style>.cls-1,.cls-3{font-size:49.17px;font-family:RobotoSlab-Medium, Roboto Slab;font-weight:500;}.cls-1{fill:#0370b8;}.cls-2{letter-spacing:0em;}.cls-3{fill:#15b6a4;}.cls-4{letter-spacing:0em;}.cls-5{letter-spacing:0em;}.cls-6{letter-spacing:-0.04em;}.cls-7,.cls-8{fill:none;stroke-linecap:round;stroke-miterlimit:10;stroke-width:6px;}.cls-7{stroke:url(#linear-gradient);}.cls-8{stroke:url(#linear-gradient-2);}</style><linearGradient id="linear-gradient" x1="319.46" y1="270.75" x2="381.61" y2="270.75" gradientUnits="userSpaceOnUse"><stop offset="0" stop-color="#0975b9"/><stop offset="0.24" stop-color="#0c7eb8"/><stop offset="0.62" stop-color="#1596b4"/><stop offset="1" stop-color="#1fb4b0"/></linearGradient><linearGradient id="linear-gradient-2" x1="319.46" y1="270.75" x2="381.61" y2="270.75" gradientUnits="userSpaceOnUse"><stop offset="0" stop-color="#006fb8"/><stop offset="0.19" stop-color="#0789b1" stop-opacity="0.96"/><stop offset="0.45" stop-color="#0ea3aa" stop-opacity="0.93"/><stop offset="0.72" stop-color="#13b2a6" stop-opacity="0.91"/><stop offset="1" stop-color="#14b7a5" stop-opacity="0.9"/></linearGradient></defs><g id="Layer_1" data-name="Layer 1"><text class="cls-1" transform="translate(0 42.06)"><tspan class="cls-2">f</tspan><tspan x="18.34" y="0">ef</tspan></text><text class="cls-3" transform="translate(107.72 42.06)"><tspan xml:space="preserve">  </tspan><tspan class="cls-4" x="24.25" y="0">c</tspan><tspan x="50.3" y="0">a</tspan><tspan class="cls-5" x="77.77" y="0">d</tspan><tspan x="106.86" y="0">e</tspan><tspan class="cls-6" x="132.55" y="0">m</tspan><tspan x="177.36" y="0">y</tspan></text></g><g id="Layer_3" data-name="Layer 3"><path class="cls-7" d="M364.57,284.78a13.85,13.85,0,0,0,7.66-2.09c6.3-4,6.38-11.63,6.38-11.94a14.35,14.35,0,0,0-6.52-11.84,13,13,0,0,0-7.52-2.2c-12.48.89-15.35,27-28.07,28.07a13,13,0,0,1-7.47-2c-5.6-3.57-6.42-10.58-6.57-12" transform="translate(-252.18 -242.25)"/><path class="cls-8" d="M336.5,284.78a13.85,13.85,0,0,1-7.66-2.09c-6.3-4-6.38-11.63-6.38-11.94A14.35,14.35,0,0,1,329,258.91a13,13,0,0,1,7.52-2.2c12.48.89,15.35,27,28.07,28.07a13,13,0,0,0,7.47-2c5.6-3.57,6.42-10.58,6.57-12" transform="translate(-252.18 -242.25)"/></g></svg>